<svg width="139" height="51" viewBox="0 0 139 51" fill="none" xmlns="http://www.w3.org/2000/svg">
<path d="M51.8963 35.5V13.6818H60.6321C62.2372 13.6818 63.576 13.9197 64.6484 14.3956C65.7209 14.8714 66.527 15.532 67.0668 16.3771C67.6065 17.2152 67.8764 18.1811 67.8764 19.2749C67.8764 20.1271 67.706 20.8764 67.3651 21.5227C67.0241 22.1619 66.5554 22.6875 65.9588 23.0994C65.3693 23.5043 64.6946 23.7919 63.9347 23.9624V24.1754C64.7656 24.2109 65.5433 24.4453 66.2678 24.8786C66.9993 25.3118 67.5923 25.919 68.0469 26.7003C68.5014 27.4744 68.7287 28.3977 68.7287 29.4702C68.7287 30.6278 68.4411 31.6612 67.8658 32.5703C67.2976 33.4723 66.456 34.1861 65.3409 34.7116C64.2259 35.2372 62.8516 35.5 61.218 35.5H51.8963ZM56.5092 31.7287H60.2699C61.5554 31.7287 62.4929 31.4837 63.0824 30.9936C63.6719 30.4964 63.9666 29.8359 63.9666 29.0121C63.9666 28.4084 63.821 27.8757 63.5298 27.4141C63.2386 26.9524 62.8232 26.5902 62.2834 26.3274C61.7507 26.0646 61.1151 25.9332 60.3764 25.9332H56.5092V31.7287ZM56.5092 22.8118H59.929C60.5611 22.8118 61.1222 22.7017 61.6122 22.4815C62.1094 22.2543 62.5 21.9347 62.7841 21.5227C63.0753 21.1108 63.2209 20.6172 63.2209 20.0419C63.2209 19.2536 62.9403 18.6179 62.3793 18.1349C61.8253 17.652 61.0369 17.4105 60.0142 17.4105H56.5092V22.8118ZM76.1834 13.6818V35.5H71.6451V13.6818H76.1834ZM84.4851 35.8089C83.4411 35.8089 82.5107 35.6278 81.6939 35.2656C80.8771 34.8963 80.2308 34.353 79.755 33.6357C79.2862 32.9112 79.0518 32.0092 79.0518 30.9297C79.0518 30.0206 79.2188 29.2571 79.5526 28.6392C79.8864 28.0213 80.3409 27.5241 80.9162 27.1477C81.4915 26.7713 82.1449 26.4872 82.8764 26.2955C83.6151 26.1037 84.3892 25.9688 85.1989 25.8906C86.1506 25.7912 86.9176 25.6989 87.5 25.6136C88.0824 25.5213 88.505 25.3864 88.7678 25.2088C89.0305 25.0312 89.1619 24.7685 89.1619 24.4205V24.3565C89.1619 23.6818 88.9489 23.1598 88.5227 22.7905C88.1037 22.4212 87.5071 22.2365 86.733 22.2365C85.9162 22.2365 85.2663 22.4176 84.7834 22.7798C84.3004 23.1349 83.9808 23.5824 83.8246 24.1222L79.6271 23.7812C79.8402 22.7869 80.2592 21.9276 80.8842 21.2031C81.5092 20.4716 82.3153 19.9105 83.3026 19.5199C84.2969 19.1222 85.4474 18.9233 86.7543 18.9233C87.6634 18.9233 88.5334 19.0298 89.3643 19.2429C90.2024 19.456 90.9446 19.7862 91.5909 20.2337C92.2443 20.6811 92.7592 21.2564 93.1357 21.9595C93.5121 22.6555 93.7003 23.4901 93.7003 24.4631V35.5H89.3963V33.2308H89.2685C89.0057 33.7422 88.6541 34.1932 88.2138 34.5838C87.7734 34.9673 87.2443 35.2692 86.6264 35.4893C86.0085 35.7024 85.2947 35.8089 84.4851 35.8089ZM85.7848 32.6768C86.4524 32.6768 87.0419 32.5455 87.5533 32.2827C88.0646 32.0128 88.4659 31.6506 88.7571 31.196C89.0483 30.7415 89.1939 30.2266 89.1939 29.6513V27.9148C89.0518 28.0071 88.8565 28.0923 88.608 28.1705C88.3665 28.2415 88.093 28.3089 87.7876 28.3729C87.4822 28.4297 87.1768 28.483 86.8714 28.5327C86.5661 28.5753 86.2891 28.6143 86.0405 28.6499C85.5078 28.728 85.0426 28.8523 84.6449 29.0227C84.2472 29.1932 83.9382 29.424 83.718 29.7152C83.4979 29.9993 83.3878 30.3544 83.3878 30.7805C83.3878 31.3984 83.6115 31.8707 84.0589 32.1974C84.5135 32.517 85.0888 32.6768 85.7848 32.6768ZM110.836 23.8026L106.681 24.0582C106.61 23.7031 106.458 23.3835 106.223 23.0994C105.989 22.8082 105.68 22.5774 105.297 22.407C104.92 22.2294 104.469 22.1406 103.944 22.1406C103.24 22.1406 102.647 22.2898 102.164 22.5881C101.681 22.8793 101.44 23.2699 101.44 23.7599C101.44 24.1506 101.596 24.4808 101.909 24.7507C102.221 25.0206 102.757 25.2372 103.517 25.4006L106.479 25.9972C108.07 26.3239 109.256 26.8494 110.037 27.5739C110.819 28.2983 111.209 29.25 111.209 30.429C111.209 31.5014 110.893 32.4425 110.261 33.2521C109.636 34.0618 108.777 34.6939 107.683 35.1484C106.596 35.5959 105.343 35.8196 103.922 35.8196C101.756 35.8196 100.03 35.3686 98.7447 34.4666C97.4663 33.5575 96.717 32.3217 96.4968 30.7592L100.961 30.5249C101.096 31.1854 101.422 31.6896 101.941 32.0376C102.459 32.3786 103.123 32.549 103.933 32.549C104.728 32.549 105.368 32.3963 105.85 32.0909C106.341 31.7784 106.589 31.3771 106.596 30.8871C106.589 30.4751 106.415 30.1378 106.074 29.875C105.733 29.6051 105.208 29.3991 104.498 29.2571L101.664 28.6925C100.066 28.3729 98.8761 27.8189 98.0948 27.0305C97.3207 26.2422 96.9336 25.2372 96.9336 24.0156C96.9336 22.9645 97.2177 22.0589 97.7859 21.299C98.3612 20.5391 99.1673 19.9531 100.204 19.5412C101.248 19.1293 102.47 18.9233 103.869 18.9233C105.936 18.9233 107.562 19.3601 108.748 20.2337C109.941 21.1072 110.637 22.2969 110.836 23.8026ZM118.179 30.7912L118.19 25.3473H118.85L124.092 19.1364H129.301L122.259 27.3608H121.183L118.179 30.7912ZM114.067 35.5V13.6818H118.605V35.5H114.067ZM124.294 35.5L119.479 28.3729L122.504 25.1662L129.61 35.5H124.294Z" fill="white"/>
<g filter="url(#filter0_f_62_113)">
<path d="M22.1152 10.6085C22.9435 7.70619 27.0565 7.70618 27.8848 10.6085L28.9775 14.4373C29.4218 15.9942 31.0213 16.9177 32.5918 16.524L36.454 15.5559C39.3816 14.8221 41.4382 18.3841 39.3389 20.5526L36.5693 23.4133C35.4432 24.5765 35.4432 26.4235 36.5693 27.5867L39.3389 30.4474C41.4382 32.6159 39.3816 36.1779 36.454 35.4441L32.5918 34.476C31.0213 34.0823 29.4218 35.0058 28.9775 36.5627L27.8848 40.3915C27.0565 43.2938 22.9435 43.2938 22.1152 40.3915L21.0225 36.5627C20.5782 35.0058 18.9787 34.0823 17.4082 34.476L13.546 35.4441C10.6184 36.1779 8.56183 32.6159 10.6611 30.4474L13.4307 27.5867C14.5568 26.4235 14.5568 24.5765 13.4307 23.4133L10.6611 20.5526C8.56183 18.3841 10.6184 14.8221 13.546 15.5559L17.4082 16.524C18.9787 16.9177 20.5782 15.9942 21.0225 14.4373L22.1152 10.6085Z" fill="url(#paint0_radial_62_113)"/>
</g>
<defs>
<filter id="filter0_f_62_113" x="2.80286" y="1.43176" width="44.3943" height="48.1365" filterUnits="userSpaceOnUse" color-interpolation-filters="sRGB">
<feFlood flood-opacity="0" result="BackgroundImageFix"/>
<feBlend mode="normal" in="SourceGraphic" in2="BackgroundImageFix" result="shape"/>
<feGaussianBlur stdDeviation="3.5" result="effect1_foregroundBlur_62_113"/>
</filter>
<radialGradient id="paint0_radial_62_113" cx="0" cy="0" r="1" gradientUnits="userSpaceOnUse" gradientTransform="translate(25 25.5) rotate(-84.8056) scale(22.0907 40.6132)">
<stop stop-color="white" stop-opacity="0.4"/>
<stop offset="0.717201" stop-color="#DBF52F"/>
</radialGradient>
</defs>
</svg>
